<mxfile host="app.diagrams.net" modified="2024-05-08T03:12:17.417Z" agent="Mozilla/5.0 (Macintosh; Intel Mac OS X 10_15_7) AppleWebKit/537.36 (KHTML, like Gecko) Chrome/124.0.0.0 Safari/537.36" etag="GE1hjnJ8PfuLzvVRTkoi" version="24.3.1" type="device">
  <diagram id="C5RBs43oDa-KdzZeNtuy" name="Page-1">
    <mxGraphModel dx="1406" dy="1982" grid="1" gridSize="10" guides="1" tooltips="1" connect="1" arrows="1" fold="1" page="1" pageScale="1" pageWidth="827" pageHeight="1169" math="0" shadow="0">
      <root>
        <mxCell id="WIyWlLk6GJQsqaUBKTNV-0" />
        <mxCell id="WIyWlLk6GJQsqaUBKTNV-1" parent="WIyWlLk6GJQsqaUBKTNV-0" />
        <mxCell id="WIyWlLk6GJQsqaUBKTNV-2" value="" style="rounded=0;html=1;jettySize=auto;orthogonalLoop=1;fontSize=11;endArrow=block;endFill=0;endSize=8;strokeWidth=1;shadow=0;labelBackgroundColor=none;edgeStyle=orthogonalEdgeStyle;" parent="WIyWlLk6GJQsqaUBKTNV-1" source="WIyWlLk6GJQsqaUBKTNV-3" edge="1">
          <mxGeometry relative="1" as="geometry">
            <mxPoint x="93" y="-884" as="targetPoint" />
          </mxGeometry>
        </mxCell>
        <mxCell id="WIyWlLk6GJQsqaUBKTNV-3" value="signup" style="rounded=1;whiteSpace=wrap;html=1;fontSize=12;glass=0;strokeWidth=1;shadow=0;" parent="WIyWlLk6GJQsqaUBKTNV-1" vertex="1">
          <mxGeometry x="33" y="-974" width="120" height="40" as="geometry" />
        </mxCell>
        <mxCell id="aJsSuuLjuQ1n_8bjBylW-14" style="edgeStyle=orthogonalEdgeStyle;rounded=0;orthogonalLoop=1;jettySize=auto;html=1;" parent="WIyWlLk6GJQsqaUBKTNV-1" source="aJsSuuLjuQ1n_8bjBylW-0" target="aJsSuuLjuQ1n_8bjBylW-11" edge="1">
          <mxGeometry relative="1" as="geometry" />
        </mxCell>
        <mxCell id="aJsSuuLjuQ1n_8bjBylW-0" value="start" style="ellipse;whiteSpace=wrap;html=1;" parent="WIyWlLk6GJQsqaUBKTNV-1" vertex="1">
          <mxGeometry x="232" y="-1150" width="90" height="50" as="geometry" />
        </mxCell>
        <mxCell id="aJsSuuLjuQ1n_8bjBylW-5" style="edgeStyle=orthogonalEdgeStyle;rounded=0;orthogonalLoop=1;jettySize=auto;html=1;" parent="WIyWlLk6GJQsqaUBKTNV-1" source="aJsSuuLjuQ1n_8bjBylW-4" edge="1">
          <mxGeometry relative="1" as="geometry">
            <mxPoint x="93" y="-764" as="targetPoint" />
          </mxGeometry>
        </mxCell>
        <mxCell id="aJsSuuLjuQ1n_8bjBylW-4" value="firstname,lastname&lt;br&gt;password,email&lt;br&gt;phone" style="shape=parallelogram;perimeter=parallelogramPerimeter;whiteSpace=wrap;html=1;fixedSize=1;" parent="WIyWlLk6GJQsqaUBKTNV-1" vertex="1">
          <mxGeometry x="20" y="-884" width="146" height="70" as="geometry" />
        </mxCell>
        <mxCell id="aJsSuuLjuQ1n_8bjBylW-7" style="edgeStyle=orthogonalEdgeStyle;rounded=0;orthogonalLoop=1;jettySize=auto;html=1;entryX=0.5;entryY=0;entryDx=0;entryDy=0;entryPerimeter=0;" parent="WIyWlLk6GJQsqaUBKTNV-1" source="aJsSuuLjuQ1n_8bjBylW-6" target="aJsSuuLjuQ1n_8bjBylW-22" edge="1">
          <mxGeometry relative="1" as="geometry">
            <mxPoint x="93" y="-664" as="targetPoint" />
          </mxGeometry>
        </mxCell>
        <mxCell id="aJsSuuLjuQ1n_8bjBylW-6" value="signup success" style="rounded=1;whiteSpace=wrap;html=1;" parent="WIyWlLk6GJQsqaUBKTNV-1" vertex="1">
          <mxGeometry x="33" y="-764" width="120" height="60" as="geometry" />
        </mxCell>
        <mxCell id="aJsSuuLjuQ1n_8bjBylW-12" style="edgeStyle=orthogonalEdgeStyle;rounded=0;orthogonalLoop=1;jettySize=auto;html=1;entryX=0.5;entryY=0;entryDx=0;entryDy=0;" parent="WIyWlLk6GJQsqaUBKTNV-1" source="aJsSuuLjuQ1n_8bjBylW-11" target="WIyWlLk6GJQsqaUBKTNV-3" edge="1">
          <mxGeometry relative="1" as="geometry" />
        </mxCell>
        <mxCell id="aJsSuuLjuQ1n_8bjBylW-13" value="no" style="edgeLabel;html=1;align=center;verticalAlign=middle;resizable=0;points=[];" parent="aJsSuuLjuQ1n_8bjBylW-12" vertex="1" connectable="0">
          <mxGeometry x="-0.0104" y="2" relative="1" as="geometry">
            <mxPoint as="offset" />
          </mxGeometry>
        </mxCell>
        <mxCell id="aJsSuuLjuQ1n_8bjBylW-20" value="" style="edgeStyle=orthogonalEdgeStyle;rounded=0;orthogonalLoop=1;jettySize=auto;html=1;" parent="WIyWlLk6GJQsqaUBKTNV-1" source="aJsSuuLjuQ1n_8bjBylW-11" target="aJsSuuLjuQ1n_8bjBylW-19" edge="1">
          <mxGeometry relative="1" as="geometry" />
        </mxCell>
        <mxCell id="aJsSuuLjuQ1n_8bjBylW-21" value="yes" style="edgeLabel;html=1;align=center;verticalAlign=middle;resizable=0;points=[];" parent="aJsSuuLjuQ1n_8bjBylW-20" vertex="1" connectable="0">
          <mxGeometry x="-0.4759" y="-1" relative="1" as="geometry">
            <mxPoint as="offset" />
          </mxGeometry>
        </mxCell>
        <mxCell id="aJsSuuLjuQ1n_8bjBylW-11" value="Have you&lt;br&gt;registered?" style="rhombus;whiteSpace=wrap;html=1;" parent="WIyWlLk6GJQsqaUBKTNV-1" vertex="1">
          <mxGeometry x="230" y="-1040" width="93" height="87" as="geometry" />
        </mxCell>
        <mxCell id="aJsSuuLjuQ1n_8bjBylW-26" value="" style="edgeStyle=orthogonalEdgeStyle;rounded=0;orthogonalLoop=1;jettySize=auto;html=1;" parent="WIyWlLk6GJQsqaUBKTNV-1" source="aJsSuuLjuQ1n_8bjBylW-19" target="aJsSuuLjuQ1n_8bjBylW-25" edge="1">
          <mxGeometry relative="1" as="geometry" />
        </mxCell>
        <mxCell id="aJsSuuLjuQ1n_8bjBylW-19" value="login" style="whiteSpace=wrap;html=1;" parent="WIyWlLk6GJQsqaUBKTNV-1" vertex="1">
          <mxGeometry x="216.5" y="-859.5" width="120" height="60" as="geometry" />
        </mxCell>
        <mxCell id="aJsSuuLjuQ1n_8bjBylW-22" value="save to db&lt;div&gt;&lt;br&gt;&lt;/div&gt;" style="shape=cylinder3;whiteSpace=wrap;html=1;boundedLbl=1;backgroundOutline=1;size=15;" parent="WIyWlLk6GJQsqaUBKTNV-1" vertex="1">
          <mxGeometry x="63" y="-624" width="60" height="80" as="geometry" />
        </mxCell>
        <mxCell id="aJsSuuLjuQ1n_8bjBylW-31" value="" style="edgeStyle=orthogonalEdgeStyle;rounded=0;orthogonalLoop=1;jettySize=auto;html=1;" parent="WIyWlLk6GJQsqaUBKTNV-1" source="aJsSuuLjuQ1n_8bjBylW-25" target="aJsSuuLjuQ1n_8bjBylW-30" edge="1">
          <mxGeometry relative="1" as="geometry" />
        </mxCell>
        <mxCell id="aJsSuuLjuQ1n_8bjBylW-33" value="" style="edgeStyle=orthogonalEdgeStyle;rounded=0;orthogonalLoop=1;jettySize=auto;html=1;" parent="WIyWlLk6GJQsqaUBKTNV-1" source="aJsSuuLjuQ1n_8bjBylW-25" target="aJsSuuLjuQ1n_8bjBylW-32" edge="1">
          <mxGeometry relative="1" as="geometry" />
        </mxCell>
        <mxCell id="aJsSuuLjuQ1n_8bjBylW-25" value="success ?" style="rhombus;whiteSpace=wrap;html=1;" parent="WIyWlLk6GJQsqaUBKTNV-1" vertex="1">
          <mxGeometry x="236.5" y="-729.5" width="80" height="80" as="geometry" />
        </mxCell>
        <mxCell id="aJsSuuLjuQ1n_8bjBylW-41" value="" style="edgeStyle=orthogonalEdgeStyle;rounded=0;orthogonalLoop=1;jettySize=auto;html=1;" parent="WIyWlLk6GJQsqaUBKTNV-1" source="aJsSuuLjuQ1n_8bjBylW-30" target="aJsSuuLjuQ1n_8bjBylW-40" edge="1">
          <mxGeometry relative="1" as="geometry" />
        </mxCell>
        <mxCell id="aJsSuuLjuQ1n_8bjBylW-43" value="" style="edgeStyle=orthogonalEdgeStyle;rounded=0;orthogonalLoop=1;jettySize=auto;html=1;" parent="WIyWlLk6GJQsqaUBKTNV-1" source="aJsSuuLjuQ1n_8bjBylW-30" target="aJsSuuLjuQ1n_8bjBylW-42" edge="1">
          <mxGeometry relative="1" as="geometry" />
        </mxCell>
        <mxCell id="aJsSuuLjuQ1n_8bjBylW-45" value="" style="edgeStyle=orthogonalEdgeStyle;rounded=0;orthogonalLoop=1;jettySize=auto;html=1;" parent="WIyWlLk6GJQsqaUBKTNV-1" source="aJsSuuLjuQ1n_8bjBylW-30" target="aJsSuuLjuQ1n_8bjBylW-42" edge="1">
          <mxGeometry relative="1" as="geometry" />
        </mxCell>
        <mxCell id="aJsSuuLjuQ1n_8bjBylW-46" value="" style="edgeStyle=orthogonalEdgeStyle;rounded=0;orthogonalLoop=1;jettySize=auto;html=1;" parent="WIyWlLk6GJQsqaUBKTNV-1" source="aJsSuuLjuQ1n_8bjBylW-30" target="aJsSuuLjuQ1n_8bjBylW-42" edge="1">
          <mxGeometry relative="1" as="geometry" />
        </mxCell>
        <mxCell id="aJsSuuLjuQ1n_8bjBylW-48" value="" style="edgeStyle=orthogonalEdgeStyle;rounded=0;orthogonalLoop=1;jettySize=auto;html=1;" parent="WIyWlLk6GJQsqaUBKTNV-1" source="aJsSuuLjuQ1n_8bjBylW-30" target="aJsSuuLjuQ1n_8bjBylW-47" edge="1">
          <mxGeometry relative="1" as="geometry" />
        </mxCell>
        <mxCell id="aJsSuuLjuQ1n_8bjBylW-30" value="yes" style="rounded=1;whiteSpace=wrap;html=1;" parent="WIyWlLk6GJQsqaUBKTNV-1" vertex="1">
          <mxGeometry x="217" y="-550" width="120" height="60" as="geometry" />
        </mxCell>
        <mxCell id="aJsSuuLjuQ1n_8bjBylW-32" value="no" style="rounded=1;whiteSpace=wrap;html=1;" parent="WIyWlLk6GJQsqaUBKTNV-1" vertex="1">
          <mxGeometry x="376.5" y="-719.5" width="120" height="60" as="geometry" />
        </mxCell>
        <mxCell id="aJsSuuLjuQ1n_8bjBylW-36" value="" style="endArrow=classic;html=1;rounded=0;" parent="WIyWlLk6GJQsqaUBKTNV-1" edge="1">
          <mxGeometry width="50" height="50" relative="1" as="geometry">
            <mxPoint x="430" y="-720" as="sourcePoint" />
            <mxPoint x="340" y="-830" as="targetPoint" />
            <Array as="points">
              <mxPoint x="430" y="-830" />
            </Array>
          </mxGeometry>
        </mxCell>
        <mxCell id="aJsSuuLjuQ1n_8bjBylW-56" style="edgeStyle=orthogonalEdgeStyle;rounded=0;orthogonalLoop=1;jettySize=auto;html=1;entryX=0.25;entryY=1;entryDx=0;entryDy=0;" parent="WIyWlLk6GJQsqaUBKTNV-1" source="aJsSuuLjuQ1n_8bjBylW-40" target="aJsSuuLjuQ1n_8bjBylW-47" edge="1">
          <mxGeometry relative="1" as="geometry" />
        </mxCell>
        <mxCell id="BxuBOlvTyZtWGUZpvjWb-1" value="" style="edgeStyle=orthogonalEdgeStyle;rounded=0;orthogonalLoop=1;jettySize=auto;html=1;" edge="1" parent="WIyWlLk6GJQsqaUBKTNV-1" source="aJsSuuLjuQ1n_8bjBylW-40" target="BxuBOlvTyZtWGUZpvjWb-0">
          <mxGeometry relative="1" as="geometry" />
        </mxCell>
        <mxCell id="aJsSuuLjuQ1n_8bjBylW-40" value="search product&lt;br&gt;by query" style="whiteSpace=wrap;html=1;rounded=1;" parent="WIyWlLk6GJQsqaUBKTNV-1" vertex="1">
          <mxGeometry x="33" y="-380" width="120" height="60" as="geometry" />
        </mxCell>
        <mxCell id="aJsSuuLjuQ1n_8bjBylW-51" style="edgeStyle=orthogonalEdgeStyle;rounded=0;orthogonalLoop=1;jettySize=auto;html=1;" parent="WIyWlLk6GJQsqaUBKTNV-1" source="aJsSuuLjuQ1n_8bjBylW-42" target="aJsSuuLjuQ1n_8bjBylW-47" edge="1">
          <mxGeometry relative="1" as="geometry" />
        </mxCell>
        <mxCell id="BxuBOlvTyZtWGUZpvjWb-2" style="edgeStyle=orthogonalEdgeStyle;rounded=0;orthogonalLoop=1;jettySize=auto;html=1;" edge="1" parent="WIyWlLk6GJQsqaUBKTNV-1" source="aJsSuuLjuQ1n_8bjBylW-42" target="BxuBOlvTyZtWGUZpvjWb-0">
          <mxGeometry relative="1" as="geometry" />
        </mxCell>
        <mxCell id="aJsSuuLjuQ1n_8bjBylW-42" value="view product" style="whiteSpace=wrap;html=1;rounded=1;" parent="WIyWlLk6GJQsqaUBKTNV-1" vertex="1">
          <mxGeometry x="216.5" y="-450" width="120" height="60" as="geometry" />
        </mxCell>
        <mxCell id="aJsSuuLjuQ1n_8bjBylW-50" value="" style="edgeStyle=orthogonalEdgeStyle;rounded=0;orthogonalLoop=1;jettySize=auto;html=1;" parent="WIyWlLk6GJQsqaUBKTNV-1" source="aJsSuuLjuQ1n_8bjBylW-47" target="aJsSuuLjuQ1n_8bjBylW-49" edge="1">
          <mxGeometry relative="1" as="geometry" />
        </mxCell>
        <mxCell id="aJsSuuLjuQ1n_8bjBylW-54" value="" style="edgeStyle=orthogonalEdgeStyle;rounded=0;orthogonalLoop=1;jettySize=auto;html=1;" parent="WIyWlLk6GJQsqaUBKTNV-1" source="aJsSuuLjuQ1n_8bjBylW-47" target="aJsSuuLjuQ1n_8bjBylW-53" edge="1">
          <mxGeometry relative="1" as="geometry" />
        </mxCell>
        <mxCell id="aJsSuuLjuQ1n_8bjBylW-47" value="add product to cart" style="whiteSpace=wrap;html=1;rounded=1;" parent="WIyWlLk6GJQsqaUBKTNV-1" vertex="1">
          <mxGeometry x="434" y="-450" width="120" height="60" as="geometry" />
        </mxCell>
        <mxCell id="aJsSuuLjuQ1n_8bjBylW-49" value="remove item&lt;br&gt;from cart" style="whiteSpace=wrap;html=1;rounded=1;" parent="WIyWlLk6GJQsqaUBKTNV-1" vertex="1">
          <mxGeometry x="434" y="-280" width="120" height="60" as="geometry" />
        </mxCell>
        <mxCell id="BxuBOlvTyZtWGUZpvjWb-4" value="" style="edgeStyle=orthogonalEdgeStyle;rounded=0;orthogonalLoop=1;jettySize=auto;html=1;" edge="1" parent="WIyWlLk6GJQsqaUBKTNV-1" source="aJsSuuLjuQ1n_8bjBylW-53" target="BxuBOlvTyZtWGUZpvjWb-3">
          <mxGeometry relative="1" as="geometry" />
        </mxCell>
        <mxCell id="aJsSuuLjuQ1n_8bjBylW-53" value="buy from cart" style="whiteSpace=wrap;html=1;rounded=1;" parent="WIyWlLk6GJQsqaUBKTNV-1" vertex="1">
          <mxGeometry x="670" y="-450" width="120" height="60" as="geometry" />
        </mxCell>
        <mxCell id="BxuBOlvTyZtWGUZpvjWb-5" style="edgeStyle=orthogonalEdgeStyle;rounded=0;orthogonalLoop=1;jettySize=auto;html=1;" edge="1" parent="WIyWlLk6GJQsqaUBKTNV-1" source="BxuBOlvTyZtWGUZpvjWb-0" target="BxuBOlvTyZtWGUZpvjWb-3">
          <mxGeometry relative="1" as="geometry" />
        </mxCell>
        <mxCell id="BxuBOlvTyZtWGUZpvjWb-0" value="instant buy" style="whiteSpace=wrap;html=1;rounded=1;" vertex="1" parent="WIyWlLk6GJQsqaUBKTNV-1">
          <mxGeometry x="123" y="-110" width="120" height="60" as="geometry" />
        </mxCell>
        <mxCell id="BxuBOlvTyZtWGUZpvjWb-3" value="end" style="ellipse;whiteSpace=wrap;html=1;rounded=1;" vertex="1" parent="WIyWlLk6GJQsqaUBKTNV-1">
          <mxGeometry x="690" y="-120" width="80" height="80" as="geometry" />
        </mxCell>
        <mxCell id="BxuBOlvTyZtWGUZpvjWb-9" value="" style="edgeStyle=orthogonalEdgeStyle;rounded=0;orthogonalLoop=1;jettySize=auto;html=1;" edge="1" parent="WIyWlLk6GJQsqaUBKTNV-1" source="BxuBOlvTyZtWGUZpvjWb-7" target="BxuBOlvTyZtWGUZpvjWb-8">
          <mxGeometry relative="1" as="geometry" />
        </mxCell>
        <mxCell id="BxuBOlvTyZtWGUZpvjWb-7" value="start" style="ellipse;whiteSpace=wrap;html=1;aspect=fixed;" vertex="1" parent="WIyWlLk6GJQsqaUBKTNV-1">
          <mxGeometry x="630" y="-1150" width="80" height="80" as="geometry" />
        </mxCell>
        <mxCell id="BxuBOlvTyZtWGUZpvjWb-11" value="" style="edgeStyle=orthogonalEdgeStyle;rounded=0;orthogonalLoop=1;jettySize=auto;html=1;" edge="1" parent="WIyWlLk6GJQsqaUBKTNV-1" source="BxuBOlvTyZtWGUZpvjWb-8" target="BxuBOlvTyZtWGUZpvjWb-10">
          <mxGeometry relative="1" as="geometry" />
        </mxCell>
        <mxCell id="BxuBOlvTyZtWGUZpvjWb-8" value="add, edit, delete&lt;br&gt;address" style="rounded=1;whiteSpace=wrap;html=1;" vertex="1" parent="WIyWlLk6GJQsqaUBKTNV-1">
          <mxGeometry x="610" y="-1026.5" width="120" height="60" as="geometry" />
        </mxCell>
        <mxCell id="BxuBOlvTyZtWGUZpvjWb-13" value="" style="edgeStyle=orthogonalEdgeStyle;rounded=0;orthogonalLoop=1;jettySize=auto;html=1;" edge="1" parent="WIyWlLk6GJQsqaUBKTNV-1" source="BxuBOlvTyZtWGUZpvjWb-10" target="BxuBOlvTyZtWGUZpvjWb-12">
          <mxGeometry relative="1" as="geometry" />
        </mxCell>
        <mxCell id="BxuBOlvTyZtWGUZpvjWb-10" value="add/delete &lt;br&gt;house, street, &lt;br&gt;city, pincode" style="shape=parallelogram;perimeter=parallelogramPerimeter;whiteSpace=wrap;html=1;fixedSize=1;rounded=1;" vertex="1" parent="WIyWlLk6GJQsqaUBKTNV-1">
          <mxGeometry x="600" y="-910" width="140" height="60" as="geometry" />
        </mxCell>
        <mxCell id="BxuBOlvTyZtWGUZpvjWb-15" style="edgeStyle=orthogonalEdgeStyle;rounded=0;orthogonalLoop=1;jettySize=auto;html=1;" edge="1" parent="WIyWlLk6GJQsqaUBKTNV-1" source="BxuBOlvTyZtWGUZpvjWb-12" target="BxuBOlvTyZtWGUZpvjWb-14">
          <mxGeometry relative="1" as="geometry" />
        </mxCell>
        <mxCell id="BxuBOlvTyZtWGUZpvjWb-12" value="add/edit success" style="whiteSpace=wrap;html=1;rounded=1;" vertex="1" parent="WIyWlLk6GJQsqaUBKTNV-1">
          <mxGeometry x="610" y="-799.5" width="120" height="60" as="geometry" />
        </mxCell>
        <mxCell id="BxuBOlvTyZtWGUZpvjWb-14" value="apply&amp;nbsp;&lt;br&gt;change&lt;br&gt;to db" style="shape=cylinder3;whiteSpace=wrap;html=1;boundedLbl=1;backgroundOutline=1;size=15;" vertex="1" parent="WIyWlLk6GJQsqaUBKTNV-1">
          <mxGeometry x="640" y="-670" width="60" height="80" as="geometry" />
        </mxCell>
      </root>
    </mxGraphModel>
  </diagram>
</mxfile>
